<?xml version="1.0" encoding="UTF-8" standalone="no"?>
<svg width="100" height="100" viewBox="0 0 100 100" xmlns="http://www.w3.org/2000/svg">
  <defs>
    <linearGradient id="bgGradient" x1="0%" y1="0%" x2="100%" y2="100%">
      <stop offset="0%" stop-color="#553965" />
      <stop offset="100%" stop-color="#A5678E" />
    </linearGradient>
    <linearGradient id="lightGradient" x1="0%" y1="0%" x2="100%" y2="100%">
      <stop offset="0%" stop-color="#ffffff" stop-opacity="0.3" />
      <stop offset="100%" stop-color="#ffffff" stop-opacity="0" />
    </linearGradient>
    <linearGradient id="goldGradient" x1="0%" y1="0%" x2="100%" y2="100%">
      <stop offset="0%" stop-color="#E8C5B0" />
      <stop offset="100%" stop-color="#D4A06C" />
    </linearGradient>
  </defs>

  <!-- Background hexagon -->
  <path d="M50,5 L90,30 L90,70 L50,95 L10,70 L10,30 Z" fill="url(#bgGradient)" />
  
  <!-- Highlight effect -->
  <path d="M50,5 L90,30 L90,70 L50,95 L10,70 L10,30 Z" fill="none" stroke="#ffffff" stroke-width="1" stroke-opacity="0.3" />
  
  <!-- Top light reflection -->
  <path d="M50,5 L90,30 L50,50 L10,30 Z" fill="url(#lightGradient)" stroke="none" />
  
  <!-- 'C' letter for CHARA -->
  <path d="M60,30 C45,25 30,35 28,50 C25,65 40,75 55,70" 
        fill="none" stroke="#ffffff" stroke-width="5" stroke-linecap="round" />
  
  <!-- Stylized hanger for Wardrobe -->
  <path d="M38,40 L62,40 M50,30 L50,40 M38,40 L35,65 M62,40 L65,65" 
        fill="none" stroke="#ffffff" stroke-width="2" stroke-opacity="0.9" />
        
  <!-- Perfume bottle -->
  <rect x="72" y="45" width="8" height="5" rx="1" fill="#ffffff" opacity="0.85" />
  <rect x="74" y="50" width="4" height="2" fill="#ffffff" opacity="0.85" />
  <rect x="70" y="52" width="12" height="15" rx="2" fill="#ffffff" opacity="0.85" />
  
  <!-- Perfume mist -->
  <path d="M76,40 C78,35 82,30 86,35" stroke="#E8C5B0" stroke-width="0.8" fill="none" opacity="0.7" />
  <path d="M76,38 C79,32 84,27 88,32" stroke="#E8C5B0" stroke-width="0.6" fill="none" opacity="0.5" />
  <path d="M76,36 C80,29 86,24 90,29" stroke="#E8C5B0" stroke-width="0.4" fill="none" opacity="0.3" />
  
  <!-- Elegant border -->
  <path d="M30,80 C40,78 60,78 70,80" stroke="url(#goldGradient)" stroke-width="2" fill="none" />
</svg>
