<?xml version="1.0" encoding="UTF-8" standalone="no"?>
<svg width="100" height="100" viewBox="0 0 100 100" xmlns="http://www.w3.org/2000/svg">
  <defs>
    <linearGradient id="bgGradient" x1="0%" y1="0%" x2="100%" y2="100%">
      <stop offset="0%" stop-color="#2A1E2C" />
      <stop offset="100%" stop-color="#553965" />
    </linearGradient>
    <linearGradient id="goldGradient" x1="0%" y1="0%" x2="100%" y2="100%">
      <stop offset="0%" stop-color="#E8C5B0" />
      <stop offset="100%" stop-color="#D4A06C" />
    </linearGradient>
    <filter id="blur" x="-10%" y="-10%" width="120%" height="120%">
      <feGaussianBlur stdDeviation="1" result="blur" />
      <feComposite in="SourceGraphic" in2="blur" operator="over" />
    </filter>
  </defs>
  
  <!-- Main Background -->
  <rect x="0" y="0" width="100" height="100" rx="20" fill="url(#bgGradient)" />
  
  <!-- Decorative Frame -->
  <rect x="5" y="5" width="90" height="90" rx="15" fill="none" stroke="url(#goldGradient)" stroke-width="2" />
  
  <!-- C monogram -->
  <path d="M35,35 Q25,50 35,65 Q50,80 65,65" 
        fill="none" stroke="#ffffff" stroke-width="6" stroke-linecap="round" />
  
  <!-- Horizontal crossing line (like a sophisticated monogram) -->
  <path d="M30,50 L70,50" stroke="#ffffff" stroke-width="3" />
  
  <!-- Perfume bottle spray -->
  <path d="M60,30 Q65,25 70,26 Q75,28 78,35" fill="none" stroke="#E8C5B0" opacity="0.7" stroke-width="1" />
  <path d="M61,28 Q66,22 72,24 Q78,27 80,33" fill="none" stroke="#E8C5B0" opacity="0.5" stroke-width="0.8" />
  
  <!-- Gold decorative elements -->
  <path d="M30,80 Q50,75 70,80" stroke="url(#goldGradient)" stroke-width="2" fill="none" />
  <path d="M20,20 L25,20 M75,20 L80,20 M20,80 L25,80 M75,80 L80,80" stroke="url(#goldGradient)" stroke-width="2" />
  
  <!-- Small decorative dots in corners -->
  <circle cx="20" cy="20" r="2" fill="#E8C5B0" />
  <circle cx="80" cy="20" r="2" fill="#E8C5B0" />
  <circle cx="20" cy="80" r="2" fill="#E8C5B0" />
  <circle cx="80" cy="80" r="2" fill="#E8C5B0" />
</svg>
