<?xml version="1.0" encoding="UTF-8" standalone="no"?>
<svg width="100" height="100" viewBox="0 0 100 100" xmlns="http://www.w3.org/2000/svg">
  <style>
    .text { font-family: 'Playfair Display', serif; fill: #ffffff; }
    .perfume-bottle { fill: #ffffff; }
    .dress { fill: #ffffff; }
  </style>
  
  <!-- Background Circle -->
  <circle cx="50" cy="50" r="48" fill="#8b5d33" />
  <circle cx="50" cy="50" r="45" fill="#a06d3e" />
  
  <!-- Elegant Letter C -->
  <text x="34" y="65" font-size="50" class="text" font-weight="bold">C</text>
  
  <!-- Stylized Dress -->
  <path class="dress" d="M65 35 C70 40, 72 60, 72 70 L58 70 C58 60, 60 40, 65 35 Z" />
  <path class="dress" d="M65 55 C60 55, 55 55, 50 60 C45 55, 40 55, 35 55 L35 70 L65 70 Z" />
  
  <!-- Perfume Bottle -->
  <rect class="perfume-bottle" x="78" y="40" width="8" height="5" rx="1" />
  <rect class="perfume-bottle" x="80" y="45" width="4" height="2" />
  <rect class="perfume-bottle" x="75" y="47" width="14" height="18" rx="2" />
  
  <!-- Signature Line -->
  <path stroke="#ffffff" stroke-width="1" fill="none" d="M30 80 C40 78, 60 78, 70 80" />
</svg>
