<svg xmlns="http://www.w3.org/2000/svg" width="400" height="400" viewBox="0 0 400 400">
  <rect width="400" height="400" fill="#F9F5F2" />
  <text x="200" y="190" fill="#553965" font-family="Arial, sans-serif" font-size="24" text-anchor="middle">Image Coming Soon</text>
  <path d="M200,140 C173.49,140 152,161.49 152,188 C152,203.464 159.37,217.125 170.939,225.939 C176.684,230.684 183.517,234.137 191,235.695 L191,260 L209,260 L209,235.695 C216.483,234.137 223.316,230.684 229.061,225.939 C240.63,217.125 248,203.464 248,188 C248,161.49 226.51,140 200,140 Z M200,158 C216.569,158 230,171.431 230,188 C230,204.569 216.569,218 200,218 C183.431,218 170,204.569 170,188 C170,171.431 183.431,158 200,158 Z" fill="#A5678E"/>
</svg>
